name analog
datacolumns 19
datarows 56
range 0.5675 0.595
endheader
time	ground_force_vx	ground_force_vy	ground_force_vz	ground_force_px	ground_force_py	ground_force_pz	l_ground_force_vx	l_ground_force_vy	l_ground_force_vz	l_ground_force_px	l_ground_force_py	l_ground_force_pz	ground_torque_x	ground_torque_y	ground_torque_z	l_ground_torque_x	l_ground_torque_y	l_ground_torque_z
0.5675	-0.0	-0.0	-0.0	3.7504472732543945	5.772068023681641	-157.84329223632812	19.3209228515625	-98.5565185546875	-649.9959716796875	-0.0	-0.0	-0.0	-0.0	-0.0	-0.0	168607.375	-99520.8359375	17226.0234375
0.5680000000000001	-0.0	-0.0	-0.0	6.233776092529297	8.087827682495117	-178.44715881347656	18.57450485229492	-97.28831481933594	-636.8140258789062	-0.0	-0.0	-0.0	-0.0	-0.0	-0.0	165262.578125	-97626.5078125	16936.279296875
0.5685	-0.0	-0.0	-0.0	7.861143112182617	10.666851997375488	-198.8666229248047	17.92875099182129	-95.56309509277344	-623.2882080078125	-0.0	-0.0	-0.0	-0.0	-0.0	-0.0	161835.0625	-95726.71875	16537.576171875
0.5690000000000001	-0.0	-0.0	-0.0	8.126876831054688	12.307814598083496	-216.8077392578125	17.26917266845703	-93.5959014892578	-608.8935546875	-0.0	-0.0	-0.0	-0.0	-0.0	-0.0	158123.953125	-93633.1328125	16227.8544921875
0.5695	-0.0	-0.0	-0.0	7.999765396118164	13.875187873840332	-230.31402587890625	16.619224548339844	-90.83382415771484	-593.4384765625	-0.0	-0.0	-0.0	-0.0	-0.0	-0.0	154129.625	-91190.71875	15809.8154296875
0.5700000000000001	-0.0	-0.0	-0.0	7.08519172668457	15.476892471313477	-245.0416717529297	15.783651351928713	-87.99777221679688	-577.4561157226562	-0.0	-0.0	-0.0	-0.0	-0.0	-0.0	150022.171875	-88904.8125	15240.2978515625
0.5705	-0.0	-0.0	-0.0	6.145880222320557	17.692405700683594	-255.70236206054688	15.120268821716309	-84.93603515625	-561.2604370117188	-0.0	-0.0	-0.0	-0.0	-0.0	-0.0	145921.3125	-86586.6875	14773.4306640625
0.5710000000000001	-0.0	-0.0	-0.0	5.503763675689697	19.91561508178711	-265.1005249023437	14.479737281799316	-81.78583526611328	-545.1226806640625	-0.0	-0.0	-0.0	-0.0	-0.0	-0.0	141869.953125	-84252.7734375	14303.9990234375
0.5715	-0.0	-0.0	-0.0	4.9659504890441895	22.05455207824707	-273.63531494140625	13.592939376831056	-78.37106323242188	-528.3078002929688	-0.0	-0.0	-0.0	-0.0	-0.0	-0.0	137667.875	-81848.328125	13622.00390625
0.5720000000000001	-0.0	-0.0	-0.0	5.218749523162842	24.5211181640625	-281.5028686523437	13.404943466186523	-74.9022445678711	-514.1865234375	-0.0	-0.0	-0.0	-0.0	-0.0	-0.0	133844.796875	-79548.6171875	13127.6953125
0.5725	-0.0	-0.0	-0.0	5.465785980224609	26.868675231933597	-289.843994140625	12.65158462524414	-71.67308044433594	-498.5740966796875	-0.0	-0.0	-0.0	-0.0	-0.0	-0.0	129857.953125	-77570.796875	12601.517578125
0.5730000000000001	-0.0	-0.0	-0.0	5.944310665130615	29.16970634460449	-299.2689514160156	11.793935775756836	-67.87889099121094	-483.4783935546875	-0.0	-0.0	-0.0	-0.0	-0.0	-0.0	126301.6796875	-75182.8125	12027.857421875
0.5735	-0.0	-0.0	-0.0	6.819960594177246	31.463031768798828	-306.6448669433594	11.798534393310549	-64.93791961669922	-469.0672607421875	-0.0	-0.0	-0.0	-0.0	-0.0	-0.0	122757.765625	-72836.4296875	11541.470703125
0.5740000000000001	-0.0	-0.0	-0.0	7.429101943969727	33.75041580200195	-315.795166015625	11.199784278869627	-61.70671081542969	-455.46478271484375	-0.0	-0.0	-0.0	-0.0	-0.0	-0.0	119105.7421875	-71089.3515625	11089.9775390625
0.5745	-0.0	-0.0	-0.0	7.955224990844727	36.09784698486328	-325.2066650390625	10.74502944946289	-58.8243408203125	-440.9869995117188	-0.0	-0.0	-0.0	-0.0	-0.0	-0.0	115694.7890625	-68966.6171875	10660.6171875
0.5750000000000001	-0.0	-0.0	-0.0	8.374628067016602	37.70320510864258	-334.9161376953125	10.067675590515137	-56.057762145996094	-427.37548828125	-0.0	-0.0	-0.0	-0.0	-0.0	-0.0	111954.125	-66718.5859375	10134.337890625
0.5755	-0.0	-0.0	-0.0	9.019155502319336	38.994415283203125	-344.4560546875	9.434617042541504	-53.15229034423828	-414.3198852539063	-0.0	-0.0	-0.0	-0.0	-0.0	-0.0	108373.1328125	-64566.9765625	9634.0224609375
0.5760000000000001	-0.0	-0.0	-0.0	9.16109561920166	40.4796142578125	-353.14013671875	8.342425346374512	-50.53139877319336	-400.5558166503906	-0.0	-0.0	-0.0	-0.0	-0.0	-0.0	105257.140625	-62582.42578125	9020.5283203125
0.5765	-0.0	-0.0	-0.0	9.715356826782228	41.746131896972656	-361.8669738769531	7.793699264526367	-48.11530303955078	-387.19232177734375	-0.0	-0.0	-0.0	-0.0	-0.0	-0.0	101759.5625	-60339.671875	8459.580078125
0.577	-0.0	-0.0	-0.0	10.081278800964355	42.81180191040039	-370.9209899902344	7.155077934265137	-45.66783142089844	-374.99560546875	-0.0	-0.0	-0.0	-0.0	-0.0	-0.0	98555.984375	-58220.01953125	7938.6884765625
0.5775	-0.0	-0.0	-0.0	10.584002494812012	43.73937225341797	-379.7678527832031	6.636906147003174	-43.06016159057617	-360.03692626953125	-0.0	-0.0	-0.0	-0.0	-0.0	-0.0	94784.84375	-56370.4453125	7479.83935546875
0.578	-0.0	-0.0	-0.0	10.196474075317385	44.73974990844727	-390.18505859375	5.941708564758301	-41.01130676269531	-348.2784423828125	-0.0	-0.0	-0.0	-0.0	-0.0	-0.0	91874.109375	-54177.62890625	7030.90771484375
0.5785	-0.0	-0.0	-0.0	10.153752326965332	45.541622161865234	-399.62347412109375	5.439801692962647	-39.09028625488281	-336.34490966796875	-0.0	-0.0	-0.0	-0.0	-0.0	-0.0	88508.296875	-52103.7578125	6617.09619140625
0.579	-0.0	-0.0	-0.0	10.098638534545898	46.033782958984375	-410.0262451171875	5.221442222595215	-37.12692642211914	-322.95867919921875	-0.0	-0.0	-0.0	-0.0	-0.0	-0.0	85161.546875	-50153.30078125	6169.3349609375
0.5795	-0.0	-0.0	-0.0	10.802401542663574	46.70433044433594	-421.9833068847656	4.726622104644775	-34.9676628112793	-310.07720947265625	-0.0	-0.0	-0.0	-0.0	-0.0	-0.0	81765.0078125	-47942.828125	5881.494140625
0.58	-0.0	-0.0	-0.0	10.376605033874512	47.477481842041016	-435.45806884765625	3.9957916736602783	-32.77931213378906	-296.10528564453125	-0.0	-0.0	-0.0	-0.0	-0.0	-0.0	78198.390625	-45730.51953125	5449.94873046875
0.5805	-0.0	-0.0	-0.0	11.197264671325684	48.08976745605469	-447.23675537109375	3.4560422897338867	-30.706079483032227	-283.73004150390625	-0.0	-0.0	-0.0	-0.0	-0.0	-0.0	74709.46875	-43554.94140625	5001.08544921875
0.581	-0.0	-0.0	-0.0	11.960601806640623	49.27325439453125	-461.8020935058594	2.977378845214844	-28.84255599975586	-269.5088195800781	-0.0	-0.0	-0.0	-0.0	-0.0	-0.0	71180.890625	-41280.05078125	4540.19091796875
0.5815	-0.0	-0.0	-0.0	12.831490516662598	50.98999786376953	-475.8213806152344	2.232263565063477	-26.780378341674805	-256.0314025878906	-0.0	-0.0	-0.0	-0.0	-0.0	-0.0	67308.90625	-39036.8203125	3944.949462890625
0.582	-0.0	-0.0	-0.0	14.09156608581543	52.91559600830078	-492.8101196289063	1.7533602714538574	-24.604782104492188	-242.3042907714844	-0.0	-0.0	-0.0	-0.0	-0.0	-0.0	63746.109375	-36585.9765625	3527.22412109375
0.5825	-0.0	-0.0	-0.0	15.069446563720703	55.25471496582031	-510.4161376953125	1.2074873447418213	-22.447046279907227	-228.89419555664065	-0.0	-0.0	-0.0	-0.0	-0.0	-0.0	60113.21875	-34330.65234375	3100.71630859375
0.583	-0.0	-0.0	-0.0	15.430071830749512	57.72576141357422	-527.978515625	0.5594358444213867	-20.23406982421875	-213.81417846679688	-0.0	-0.0	-0.0	-0.0	-0.0	-0.0	56510.68359375	-32152.111328125	2672.396484375
0.5835	-0.0	-0.0	-0.0	15.886446952819824	60.32111358642578	-544.2779541015625	0.4435539245605469	-18.282588958740234	-201.3800201416016	-0.0	-0.0	-0.0	-0.0	-0.0	-0.0	53018.30078125	-29735.35546875	2234.16748046875
0.584	-0.0	-0.0	-0.0	16.253528594970703	63.11099624633789	-560.5232543945312	-0.0324469432234764	-16.20045280456543	-188.43028259277344	-0.0	-0.0	-0.0	-0.0	-0.0	-0.0	49717.65625	-27654.31640625	1855.0555419921875
0.5845	-0.0	-0.0	-0.0	16.771480560302734	65.61013793945312	-576.3866577148438	-0.2802416682243347	-14.29515266418457	-175.9086456298828	-0.0	-0.0	-0.0	-0.0	-0.0	-0.0	46308.07421875	-25645.234375	1432.7044677734375
0.585	-0.0	-0.0	-0.0	17.016904830932617	68.7059326171875	-591.5615844726562	-0.3689858317375183	-12.333355903625488	-163.8507843017578	-0.0	-0.0	-0.0	-0.0	-0.0	-0.0	43344.65234375	-23694.296875	1142.3251953125
0.5855	-0.0	-0.0	-0.0	17.293922424316406	71.57817077636719	-607.1674194335938	-0.6684806942939758	-10.661835670471191	-151.94395446777344	-0.0	-0.0	-0.0	-0.0	-0.0	-0.0	40060.44140625	-21871.12890625	770.1880493164062
0.586	-0.0	-0.0	-0.0	17.61434555053711	74.66732025146484	-622.586669921875	-0.5940912961959839	-8.748579978942871	-140.1008758544922	-0.0	-0.0	-0.0	-0.0	-0.0	-0.0	37005.6484375	-20017.310546875	592.0234375
0.5865	-0.0	-0.0	-0.0	18.21346664428711	77.44602966308594	-637.3955078125	-0.5086116790771484	-6.67376708984375	-128.23196411132812	-0.0	-0.0	-0.0	-0.0	-0.0	-0.0	33957.1875	-18054.0703125	331.1473693847656
0.587	-0.0	-0.0	-0.0	18.465251922607425	80.76888275146484	-652.4876708984375	-0.3163410425186157	-4.825234889984131	-116.81443786621094	-0.0	-0.0	-0.0	-0.0	-0.0	-0.0	30888.275390625	-16169.361328125	125.12635803222656
0.5875	-0.0	-0.0	-0.0	18.323789596557617	83.31327819824219	-666.827392578125	-0.0530915111303329	-3.3446269035339355	-107.65596771240234	-0.0	-0.0	-0.0	-0.0	-0.0	-0.0	28411.322265625	-14491.4716796875	-76.02114868164062
0.588	-0.0	-0.0	-0.0	18.37154006958008	86.11294555664062	-677.151611328125	0.0368324294686317	-1.89283299446106	-98.24537658691406	-0.0	-0.0	-0.0	-0.0	-0.0	-0.0	25614.306640625	-13052.150390625	-321.7334289550781
0.5885	-0.0	-0.0	-0.0	18.151338577270508	88.90473937988281	-690.2183837890625	0.044323481619358	-0.4568459391593933	-87.26590728759766	-0.0	-0.0	-0.0	-0.0	-0.0	-0.0	23004.587890625	-11598.0224609375	-500.6255187988281
0.589	-0.0	-0.0	-0.0	18.171844482421875	91.3969955444336	-702.7733154296875	-0.174676775932312	0.9315025210380554	-78.64418029785156	-0.0	-0.0	-0.0	-0.0	-0.0	-0.0	20827.708984375	-10155.6494140625	-756.3148803710938
0.5895	-0.0	-0.0	-0.0	18.01501846313477	92.87937927246094	-712.5296020507812	-0.0940613150596618	2.3378610610961914	-70.52862548828125	-0.0	-0.0	-0.0	-0.0	-0.0	-0.0	18750.865234375	-8747.4697265625	-817.91796875
0.59	-0.0	-0.0	-0.0	17.642807006835938	94.67381286621094	-721.74658203125	-0.0663296431303024	3.361678123474121	-63.16530227661133	-0.0	-0.0	-0.0	-0.0	-0.0	-0.0	16646.814453125	-7548.3857421875	-872.9676513671875
0.5905	-0.0	-0.0	-0.0	16.865957260131836	95.96717071533205	-729.33740234375	0.0937808379530906	4.267879962921143	-56.377708435058594	-0.0	-0.0	-0.0	-0.0	-0.0	-0.0	14780.390625	-6470.05078125	-1005.7021484375
0.591	-0.0	-0.0	-0.0	15.704023361206056	96.5489501953125	-736.0575561523438	0.2821846008300781	4.944842338562012	-50.65147018432617	-0.0	-0.0	-0.0	-0.0	-0.0	-0.0	13288.2958984375	-5590.06494140625	-1116.280517578125
0.5915	-0.0	-0.0	-0.0	15.165786743164062	97.18910217285156	-743.8170166015625	0.308028370141983	5.834128379821777	-44.69140625	-0.0	-0.0	-0.0	-0.0	-0.0	-0.0	11981.05078125	-4793.45947265625	-1134.6077880859375
0.592	-0.0	-0.0	-0.0	14.673973083496094	97.7698974609375	-747.5343627929688	0.2041319012641906	6.207015037536621	-39.495853424072266	-0.0	-0.0	-0.0	-0.0	-0.0	-0.0	10515.716796875	-3853.905029296875	-1198.8443603515625
0.5925	-0.0	-0.0	-0.0	14.151464462280272	97.78070068359376	-753.3521728515625	0.1938641369342804	6.691433429718018	-35.550086975097656	-0.0	-0.0	-0.0	-0.0	-0.0	-0.0	9570.1083984375	-3244.0888671875	-1251.9007568359375
0.593	-0.0	-0.0	-0.0	13.615151405334473	97.6118621826172	-757.3427734375	0.3131364583969116	7.05373477935791	-33.00958633422852	-0.0	-0.0	-0.0	-0.0	-0.0	-0.0	8673.5888671875	-2704.4267578125	-1247.38818359375
0.5935	-0.0	-0.0	-0.0	13.729392051696776	97.34392547607422	-758.2952270507812	0.3461134135723114	7.129451274871826	-29.162748336791992	-0.0	-0.0	-0.0	-0.0	-0.0	-0.0	7910.0400390625	-2214.515869140625	-1332.82470703125
0.594	-0.0	-0.0	-0.0	13.079318046569824	97.15391540527344	-759.2484130859375	0.2504851818084717	7.322317123413086	-27.728918075561523	-0.0	-0.0	-0.0	-0.0	-0.0	-0.0	6953.630859375	-1830.2939453125	-1321.9110107421875
0.5945	-0.0	-0.0	-0.0	12.257877349853516	96.83150482177734	-758.6646728515625	0.1985277682542801	7.025726795196533	-26.103073120117188	-0.0	-0.0	-0.0	-0.0	-0.0	-0.0	6432.90771484375	-1471.246826171875	-1280.6895751953125
0.595	-0.0	-0.0	-0.0	11.467769622802734	96.31185913085938	-759.1903076171875	-0.0720617175102233	6.723019599914551	-23.79418182373047	-0.0	-0.0	-0.0	-0.0	-0.0	-0.0	5876.72998046875	-1099.6192626953125	-1186.591064453125
